<?xml version="1.0" encoding="UTF-8"?>
<svg xmlns="http://www.w3.org/2000/svg" xmlns:xlink="http://www.w3.org/1999/xlink" width="480px" height="480px" viewBox="0 0 480 480" version="1.1">
<g id="surface414229">
<path style=" stroke:none;fill-rule:nonzero;fill:rgb(90.196078%,31.764706%,0%);fill-opacity:1;" d="M 410 50 L 70 50 L 100 390 L 240 430 L 380 390 Z M 410 50 "/>
<path style=" stroke:none;fill-rule:nonzero;fill:rgb(100%,42.745098%,0%);fill-opacity:1;" d="M 240 80 L 240 399 L 352 367 L 377 80 Z M 240 80 "/>
<path style=" stroke:none;fill-rule:nonzero;fill:rgb(100%,100%,100%);fill-opacity:1;" d="M 240 250 L 240 210 L 326 210 L 319 325 L 240 351 L 240 309 L 281 295 L 284 250 Z M 329 170 L 332 130 L 240 130 L 240 170 Z M 329 170 "/>
<path style=" stroke:none;fill-rule:nonzero;fill:rgb(93.333333%,93.333333%,93.333333%);fill-opacity:1;" d="M 240 309 L 240 351 L 161 325 L 157 270 L 197 270 L 199 295 Z M 191 170 L 240 170 L 240 130 L 149 130 L 156 250 L 240 250 L 240 210 L 194 210 Z M 191 170 "/>
</g>
</svg>
