<?xml version="1.0" encoding="UTF-8"?>
<svg xmlns="http://www.w3.org/2000/svg" xmlns:xlink="http://www.w3.org/1999/xlink" width="480px" height="480px" viewBox="0 0 480 480" version="1.1">
<g id="surface412299">
<path style=" stroke:none;fill-rule:nonzero;fill:rgb(100%,83.921569%,0%);fill-opacity:1;" d="M 60 420 L 60 60 L 420 60 L 420 420 Z M 60 420 "/>
<path style=" stroke:none;fill-rule:nonzero;fill:rgb(0%,0%,0.392157%);fill-opacity:1;" d="M 295.378906 329.46875 C 302.300781 340.710938 309.820312 351.480469 325.75 351.480469 C 339.128906 351.480469 346.148438 344.828125 346.148438 335.628906 C 346.148438 324.621094 338.890625 320.710938 324.171875 314.300781 L 316.101562 310.859375 C 292.808594 300.980469 277.320312 288.601562 277.320312 262.449219 C 277.320312 238.351562 295.769531 220.011719 324.601562 220.011719 C 345.128906 220.011719 359.878906 227.121094 370.519531 245.738281 L 345.378906 261.808594 C 339.851562 251.929688 333.871094 248.039062 324.601562 248.039062 C 315.140625 248.039062 309.148438 254.011719 309.148438 261.808594 C 309.148438 271.449219 315.148438 275.351562 329 281.320312 L 337.070312 284.761719 C 364.519531 296.449219 380 308.390625 380 335.230469 C 380 364.148438 357.160156 380 326.5 380 C 296.511719 380 279.480469 364.949219 270 346.320312 Z M 179.519531 330.289062 C 184.578125 339.351562 192.269531 346.320312 203.328125 346.320312 C 213.910156 346.320312 220 342.140625 220 325.890625 L 220 220 L 253.328125 220 L 253.328125 331.011719 C 253.328125 364.679688 233.800781 380 205.28125 380 C 179.511719 380 160.910156 362.539062 153.328125 346.320312 Z M 179.519531 330.289062 "/>
</g>
</svg>
