<?xml version="1.0" encoding="UTF-8"?>
<svg xmlns="http://www.w3.org/2000/svg" xmlns:xlink="http://www.w3.org/1999/xlink" width="480px" height="480px" viewBox="0 0 480 480" version="1.1">
<g id="surface302126">
<path style="fill:none;stroke-width:2;stroke-linecap:butt;stroke-linejoin:miter;stroke:rgb(12.941176%,58.823529%,95.294118%);stroke-opacity:1;stroke-miterlimit:10;" d="M 24 15 C 11.849609 15 2 19.029297 2 24 C 2 28.970703 11.849609 33 24 33 C 36.150391 33 46 28.970703 46 24 C 46 19.029297 36.150391 15 24 15 Z M 24 15 " transform="matrix(10,0,0,10,0,0)"/>
<path style="fill:none;stroke-width:2;stroke-linecap:butt;stroke-linejoin:miter;stroke:rgb(12.941176%,58.823529%,95.294118%);stroke-opacity:1;stroke-miterlimit:10;" d="M 23.998828 15.000876 C 11.848779 15.000905 1.99903 19.030484 1.999166 24.001031 C 1.998963 28.971773 11.848886 33.001091 23.998935 33.001062 C 36.149323 33.000838 45.998928 28.971793 45.999131 24.001051 C 45.998996 19.030504 36.149411 15.000991 23.998828 15.000876 Z M 23.998828 15.000876 " transform="matrix(5,-8.660254,8.660254,5,-87.854757,327.851097)"/>
<path style="fill:none;stroke-width:2;stroke-linecap:butt;stroke-linejoin:miter;stroke:rgb(12.941176%,58.823529%,95.294118%);stroke-opacity:1;stroke-miterlimit:10;" d="M 23.998991 1.99889 C 19.028249 1.999093 14.999204 11.848699 14.99898 23.999086 C 14.998951 36.149136 19.028269 45.999059 23.999011 45.998856 C 28.969558 45.998991 32.999137 36.149243 32.998827 23.998998 C 32.999051 11.848611 28.969538 1.999025 23.998991 1.99889 Z M 23.998991 1.99889 " transform="matrix(8.660254,-5,5,8.660254,-87.847437,152.148903)"/>
<path style=" stroke:none;fill-rule:nonzero;fill:rgb(97.647059%,27.058824%,8.235294%);fill-opacity:1;" d="M 240 200 C 217.910156 200 200 217.910156 200 240 C 200 262.089844 217.910156 280 240 280 C 262.089844 280 280 262.089844 280 240 C 280 217.910156 262.089844 200 240 200 Z M 240 200 "/>
</g>
</svg>
